<?xml version="1.0" standalone="no"?>
<!DOCTYPE svg PUBLIC "-//W3C//DTD SVG 20010904//EN"
 "http://www.w3.org/TR/2001/REC-SVG-20010904/DTD/svg10.dtd">
<svg version="1.0" xmlns="http://www.w3.org/2000/svg"
 width="225.000000pt" height="225.000000pt" viewBox="0 0 225.000000 225.000000"
 preserveAspectRatio="xMidYMid meet">
<metadata>
Created by potrace 1.11, written by Peter Selinger 2001-2013
</metadata>
<g transform="translate(0.000000,225.000000) scale(0.100000,-0.100000)"
fill="#000000" stroke="none">
<path d="M972 2170 c-160 -23 -349 -99 -473 -190 -91 -68 -217 -203 -273 -294
-63 -99 -111 -222 -137 -347 -27 -132 -23 -339 9 -461 100 -377 392 -665 772
-761 70 -18 113 -21 245 -21 139 1 172 4 256 26 190 51 346 141 479 277 178
181 274 384 299 630 21 198 -12 378 -104 566 -138 284 -383 479 -696 555 -96
23 -282 33 -377 20z m363 -109 c574 -141 884 -758 654 -1302 -87 -207 -268
-394 -477 -492 -154 -72 -374 -104 -539 -77 -388 62 -686 332 -789 715 -26 98
-27 361 -1 455 93 339 326 585 647 684 47 15 112 31 145 36 88 13 267 4 360
-19z"/>
<path d="M596 1457 c-71 -41 -76 -60 -76 -323 0 -224 1 -232 23 -265 12 -18
38 -44 57 -57 l34 -23 356 3 355 3 34 24 c43 31 71 92 71 159 l0 54 51 -44
c113 -97 130 -108 170 -108 l39 0 0 256 0 257 -49 -5 c-45 -4 -57 -12 -128
-76 l-78 -71 -6 63 c-6 73 -31 122 -79 153 -33 23 -36 23 -384 23 -345 0 -352
-1 -390 -23z"/>
</g>
</svg>
